<svg width="50" height="49" viewBox="0 0 50 49" fill="none" xmlns="http://www.w3.org/2000/svg">
<g clip-path="url(#clip0_220_542)">
<path d="M34.3854 38.8045C33.8455 38.8045 33.4037 38.3515 33.4037 37.798V3.0798C33.4037 2.49101 32.9373 2.01294 32.363 2.01294H17.6369C17.0626 2.01294 16.5963 2.49101 16.5963 3.0798V37.798C16.5963 38.3515 16.1545 38.8045 15.6146 38.8045C15.0746 38.8045 14.6328 38.3515 14.6328 37.798V3.0798C14.6328 1.37886 15.9827 0 17.6369 0H32.363C34.0222 0 35.3672 1.3839 35.3672 3.0798V37.798C35.3672 38.3515 34.9254 38.8045 34.3854 38.8045Z" fill="white"/>
<path d="M49.0183 38.8047H0.98174C0.441783 38.8047 0 38.3517 0 37.7982V9.64218C0 7.94125 1.34989 6.56238 3.00412 6.56238H15.6146C16.1545 6.56238 16.5963 7.01529 16.5963 7.56885C16.5963 8.12241 16.1545 8.57532 15.6146 8.57532H3.00412C2.42981 8.57532 1.96348 9.05339 1.96348 9.64218V36.7967H48.0365V9.59689C48.0365 9.31004 47.9285 9.04333 47.7322 8.84204C47.5358 8.64074 47.2708 8.50487 46.9959 8.53003L34.3952 8.57532C33.8553 8.57532 33.4135 8.12744 33.4135 7.57388C33.4135 7.02033 33.8504 6.56741 34.3903 6.56238L46.991 6.51709H47.0008C47.8009 6.51709 48.5519 6.83413 49.1213 7.41788C49.6908 8.00163 50.0049 8.77662 50.0049 9.60192V37.8032C50.0049 38.3568 49.5631 38.8097 49.0232 38.8097L49.0183 38.8047Z" fill="white"/>
<path d="M12.5762 15.6003H4.84502C4.30506 15.6003 3.86328 15.1474 3.86328 14.5939C3.86328 14.0403 4.30506 13.5874 4.84502 13.5874H12.5762C13.1162 13.5874 13.558 14.0403 13.558 14.5939C13.558 15.1474 13.1162 15.6003 12.5762 15.6003Z" fill="white"/>
<path d="M12.5762 21.2566H4.84502C4.30506 21.2566 3.86328 20.8037 3.86328 20.2501C3.86328 19.6966 4.30506 19.2437 4.84502 19.2437H12.5762C13.1162 19.2437 13.558 19.6966 13.558 20.2501C13.558 20.8037 13.1162 21.2566 12.5762 21.2566Z" fill="white"/>
<path d="M12.5762 26.9182H4.84502C4.30506 26.9182 3.86328 26.4653 3.86328 25.9117C3.86328 25.3582 4.30506 24.9053 4.84502 24.9053H12.5762C13.1162 24.9053 13.558 25.3582 13.558 25.9117C13.558 26.4653 13.1162 26.9182 12.5762 26.9182Z" fill="white"/>
<path d="M45.1504 15.6003H37.4192C36.8793 15.6003 36.4375 15.1474 36.4375 14.5939C36.4375 14.0403 36.8793 13.5874 37.4192 13.5874H45.1504C45.6904 13.5874 46.1322 14.0403 46.1322 14.5939C46.1322 15.1474 45.6904 15.6003 45.1504 15.6003Z" fill="white"/>
<path d="M45.1504 21.2566H37.4192C36.8793 21.2566 36.4375 20.8037 36.4375 20.2501C36.4375 19.6966 36.8793 19.2437 37.4192 19.2437H45.1504C45.6904 19.2437 46.1322 19.6966 46.1322 20.2501C46.1322 20.8037 45.6904 21.2566 45.1504 21.2566Z" fill="white"/>
<path d="M45.1504 26.9182H37.4192C36.8793 26.9182 36.4375 26.4653 36.4375 25.9117C36.4375 25.3582 36.8793 24.9053 37.4192 24.9053H45.1504C45.6904 24.9053 46.1322 25.3582 46.1322 25.9117C46.1322 26.4653 45.6904 26.9182 45.1504 26.9182Z" fill="white"/>
<path d="M28.8633 15.6003H21.1321C20.5922 15.6003 20.1504 15.1474 20.1504 14.5939C20.1504 14.0403 20.5922 13.5874 21.1321 13.5874H28.8633C29.4033 13.5874 29.8451 14.0403 29.8451 14.5939C29.8451 15.1474 29.4033 15.6003 28.8633 15.6003Z" fill="white"/>
<path d="M28.8633 9.93872H21.1321C20.5922 9.93872 20.1504 9.48581 20.1504 8.93225C20.1504 8.37869 20.5922 7.92578 21.1321 7.92578H28.8633C29.4033 7.92578 29.8451 8.37869 29.8451 8.93225C29.8451 9.48581 29.4033 9.93872 28.8633 9.93872Z" fill="white"/>
<path d="M28.8633 21.2566H21.1321C20.5922 21.2566 20.1504 20.8037 20.1504 20.2501C20.1504 19.6966 20.5922 19.2437 21.1321 19.2437H28.8633C29.4033 19.2437 29.8451 19.6966 29.8451 20.2501C29.8451 20.8037 29.4033 21.2566 28.8633 21.2566Z" fill="white"/>
<path d="M28.8633 26.9177H21.1321C20.5922 26.9177 20.1504 26.4648 20.1504 25.9113C20.1504 25.3577 20.5922 24.9048 21.1321 24.9048H28.8633C29.4033 24.9048 29.8451 25.3577 29.8451 25.9113C29.8451 26.4648 29.4033 26.9177 28.8633 26.9177Z" fill="white"/>
<path d="M20.8719 33.3945C20.3319 33.3945 19.8901 32.9416 19.8901 32.3881C19.8901 31.8345 20.3319 31.3564 20.8719 31.3564C21.4118 31.3564 21.8536 31.7842 21.8536 32.3378V32.3881C21.8536 32.9416 21.4118 33.3945 20.8719 33.3945Z" fill="white"/>
<path d="M25.0003 33.3945C24.4603 33.3945 24.0186 32.9416 24.0186 32.3881C24.0186 31.8345 24.4603 31.3564 25.0003 31.3564C25.5403 31.3564 25.982 31.7842 25.982 32.3378V32.3881C25.982 32.9416 25.5403 33.3945 25.0003 33.3945Z" fill="white"/>
<path d="M29.1282 33.3945C28.5883 33.3945 28.1465 32.9416 28.1465 32.3881C28.1465 31.8345 28.5883 31.3564 29.1282 31.3564C29.6682 31.3564 30.11 31.7842 30.11 32.3378V32.3881C30.11 32.9416 29.6682 33.3945 29.1282 33.3945Z" fill="white"/>
<path d="M40.325 33.1128C39.785 33.1128 39.3433 32.6599 39.3433 32.1063C39.3433 31.5528 39.785 31.0747 40.325 31.0747C40.865 31.0747 41.3067 31.5025 41.3067 32.056V32.1063C41.3067 32.6599 40.865 33.1128 40.325 33.1128Z" fill="white"/>
<path d="M44.4583 33.1128C43.9183 33.1128 43.4766 32.6599 43.4766 32.1063C43.4766 31.5528 43.9183 31.0747 44.4583 31.0747C44.9983 31.0747 45.44 31.5025 45.44 32.056V32.1063C45.44 32.6599 44.9983 33.1128 44.4583 33.1128Z" fill="white"/>
<path d="M5.5418 33.1128C5.00184 33.1128 4.56006 32.6599 4.56006 32.1063C4.56006 31.5528 5.00184 31.0747 5.5418 31.0747C6.08176 31.0747 6.52354 31.5025 6.52354 32.056V32.1063C6.52354 32.6599 6.08176 33.1128 5.5418 33.1128Z" fill="white"/>
<path d="M9.67022 33.1128C9.13026 33.1128 8.68848 32.6599 8.68848 32.1063C8.68848 31.5528 9.13026 31.0747 9.67022 31.0747C10.2102 31.0747 10.652 31.5025 10.652 32.056V32.1063C10.652 32.6599 10.2102 33.1128 9.67022 33.1128Z" fill="white"/>
<path d="M42.2245 46.4586H27.4837C26.9437 46.4586 26.502 46.0057 26.502 45.4522C26.502 44.8986 26.9437 44.4457 27.4837 44.4457H41.2428V37.798C41.2428 37.2444 41.6846 36.7915 42.2245 36.7915C42.7645 36.7915 43.2063 37.2444 43.2063 37.798V45.4522C43.2063 46.0057 42.7645 46.4586 42.2245 46.4586Z" fill="white"/>
<path d="M22.516 46.4586H7.7752C7.23524 46.4586 6.79346 46.0057 6.79346 45.4522V37.798C6.79346 37.2444 7.23524 36.7915 7.7752 36.7915C8.31515 36.7915 8.75694 37.2444 8.75694 37.798V44.4457H22.516C23.056 44.4457 23.4978 44.8986 23.4978 45.4522C23.4978 46.0057 23.056 46.4586 22.516 46.4586Z" fill="white"/>
<path d="M24.9997 48.9999C23.0902 48.9999 21.5342 47.4097 21.5342 45.4521C21.5342 43.4945 23.0902 41.9043 24.9997 41.9043C26.9092 41.9043 28.4653 43.4945 28.4653 45.4521C28.4653 47.4097 26.9092 48.9999 24.9997 48.9999ZM24.9997 43.9172C24.1702 43.9172 23.4977 44.6067 23.4977 45.4521C23.4977 46.2975 24.1702 46.987 24.9997 46.987C25.8293 46.987 26.5018 46.2975 26.5018 45.4521C26.5018 44.6067 25.8293 43.9172 24.9997 43.9172Z" fill="white"/>
<path d="M24.9998 43.9173C24.4598 43.9173 24.0181 43.4644 24.0181 42.9108V37.798C24.0181 37.2444 24.4598 36.7915 24.9998 36.7915C25.5398 36.7915 25.9815 37.2444 25.9815 37.798V42.9108C25.9815 43.4644 25.5398 43.9173 24.9998 43.9173Z" fill="white"/>
</g>
<defs>
<clipPath id="clip0_220_542">
<rect width="50" height="49" fill="white"/>
</clipPath>
</defs>
</svg>
