<svg width="158" height="64" viewBox="0 0 158 64" fill="none" xmlns="http://www.w3.org/2000/svg">
<g clip-path="url(#clip0_220_247)">
<path d="M27.2958 45.5376H25.8375C25.5281 45.5376 25.3072 45.5965 25.1451 45.6996C24.9978 45.8026 24.8358 46.0087 24.659 46.3179L18.045 59.1856L11.3721 46.3179C11.2248 46.0087 11.0627 45.8026 10.9154 45.6996C10.7681 45.5965 10.5324 45.5376 10.2231 45.5376H8.64692C8.2492 45.5376 8.04297 45.6554 8.04297 45.8762C8.04297 45.9646 8.08716 46.1118 8.19027 46.3179L16.896 62.7044C17.1612 63.2197 17.3674 63.573 17.5147 63.735C17.662 63.9117 17.8093 64 17.9861 64C18.1187 64 18.2365 63.9706 18.3102 63.8969C18.3986 63.8233 18.5017 63.6908 18.6342 63.4847C18.7668 63.2786 18.9141 63.0136 19.0614 62.7044L27.7377 46.3179C27.8261 46.1118 27.885 45.9646 27.885 45.8762C27.885 45.6554 27.6788 45.5376 27.2811 45.5376H27.2958Z" fill="white"/>
<path d="M49.5978 46.4651C49.3032 45.9351 49.097 45.5818 48.9791 45.4198C48.8613 45.2579 48.6992 45.1695 48.5372 45.1695C48.3457 45.1695 48.1837 45.2579 48.0511 45.4198C47.9185 45.5818 47.7123 45.9351 47.4177 46.4651L38.7708 62.8516C38.6677 63.0577 38.6235 63.205 38.6235 63.2933C38.6235 63.5141 38.815 63.6319 39.198 63.6319H40.6858C40.9952 63.6319 41.2161 63.573 41.3782 63.47C41.5255 63.3669 41.6875 63.1608 41.8348 62.8516L48.4783 49.9839L52.5881 57.9489H48.5519C48.3457 57.9489 48.1395 58.0667 48.0511 58.2581L47.403 59.5979C47.2262 59.966 47.4913 60.3929 47.9038 60.3929H53.8402L55.107 62.8516C55.2838 63.1608 55.4311 63.3669 55.5784 63.47C55.7257 63.573 55.9467 63.6319 56.256 63.6319H57.8616C58.2594 63.6319 58.4656 63.5141 58.4656 63.2933C58.4656 63.205 58.4214 63.0577 58.3183 62.8516L49.5831 46.4651H49.5978Z" fill="white"/>
<path d="M86.4536 61.1732H77.9836C77.851 61.1732 77.7626 61.1585 77.7037 61.1143C77.6595 61.0702 77.63 60.9965 77.63 60.8935V46.1118C77.63 45.891 77.5858 45.7437 77.4827 45.6554C77.3796 45.5818 77.2176 45.5376 76.9966 45.5376H75.391C75.1553 45.5376 74.9933 45.5818 74.9049 45.6554C74.8165 45.729 74.7576 45.891 74.7576 46.1118V63.0725C74.7576 63.2933 74.8018 63.4405 74.9049 63.5289C74.9933 63.6025 75.17 63.6467 75.391 63.6467H86.4536C86.6893 63.6467 86.8514 63.6025 86.9397 63.5289C87.0281 63.4553 87.087 63.308 87.087 63.0725V61.7474C87.087 61.5266 87.0429 61.3793 86.9397 61.291C86.8514 61.2174 86.6746 61.1732 86.4536 61.1732Z" fill="white"/>
<path d="M118.817 45.5376H117.358C117.049 45.5376 116.828 45.5965 116.666 45.6996C116.519 45.8026 116.357 46.0087 116.18 46.3179L109.566 59.1856L102.893 46.3179C102.746 46.0087 102.584 45.8026 102.436 45.6996C102.289 45.5965 102.053 45.5376 101.744 45.5376H100.168C99.7702 45.5376 99.564 45.6554 99.564 45.8762C99.564 45.9646 99.6082 46.1118 99.7113 46.3179L108.417 62.7044C108.682 63.2197 108.888 63.573 109.036 63.735C109.183 63.9117 109.33 64 109.507 64C109.64 64 109.758 63.9706 109.831 63.8969C109.92 63.8233 110.023 63.6908 110.155 63.4847C110.288 63.2786 110.435 63.0136 110.582 62.7044L119.259 46.3179C119.347 46.1118 119.406 45.9646 119.406 45.8762C119.406 45.6554 119.2 45.5376 118.802 45.5376H118.817Z" fill="white"/>
<path d="M147.718 61.291C147.63 61.2174 147.453 61.1732 147.232 61.1732H138.924C138.791 61.1732 138.703 61.1585 138.644 61.1143C138.6 61.0702 138.57 60.9965 138.57 60.8935V56.035C138.57 55.9319 138.6 55.8583 138.644 55.8141C138.688 55.77 138.777 55.7552 138.924 55.7552H146.216C146.451 55.7552 146.613 55.7111 146.702 55.6227C146.79 55.5344 146.849 55.3872 146.849 55.181V53.8854C146.849 53.6646 146.805 53.5174 146.702 53.429C146.613 53.3554 146.437 53.3112 146.216 53.3112H138.924C138.791 53.3112 138.703 53.2965 138.644 53.2524C138.6 53.2082 138.57 53.1346 138.57 53.0021V48.2761C138.57 48.173 138.6 48.0994 138.644 48.0552C138.688 48.011 138.777 47.9963 138.924 47.9963H147.202C147.438 47.9963 147.6 47.9522 147.689 47.8785C147.777 47.8049 147.836 47.643 147.836 47.4221V46.0971C147.836 45.8762 147.792 45.729 147.689 45.6407C147.585 45.5671 147.423 45.5229 147.202 45.5229H136.346C136.11 45.5229 135.948 45.5671 135.86 45.6407C135.772 45.7143 135.713 45.8762 135.713 46.0971V63.0577C135.713 63.2786 135.757 63.4258 135.86 63.5141C135.948 63.5878 136.125 63.6319 136.346 63.6319H147.232C147.468 63.6319 147.63 63.5878 147.718 63.5141C147.806 63.4405 147.865 63.2933 147.865 63.0577V61.7327C147.865 61.5118 147.821 61.3646 147.718 61.2763V61.291Z" fill="white"/>
<path d="M74.3894 27.8261V34.4366H139.675L143.255 27.8261H74.3894Z" fill="#C9333D"/>
<path d="M74.4924 0.515298V7.12583H154.435L158 0.515298H74.4924Z" fill="#C9333D"/>
<path d="M74.4189 14.1781V20.7739H147.055L150.62 14.1781H74.4189Z" fill="#C9333D"/>
<path d="M34.8084 0.839199C34.5875 0.662526 34.2487 0.574189 33.792 0.574189H28.9162C28.4448 0.574189 28.1208 0.662526 27.9293 0.839199C27.7378 1.01587 27.6347 1.31033 27.6347 1.73729V19.5372C27.6347 22.4375 26.8687 24.6754 25.3514 26.2655C23.8342 27.8555 21.654 28.6506 18.8405 28.6506C16.027 28.6506 13.8027 27.8555 12.3296 26.2655C10.8418 24.6754 10.1053 22.4081 10.1053 19.493V1.73729C10.1053 1.32505 10.0022 1.01587 9.78121 0.839199C9.56025 0.662526 9.22145 0.574189 8.7648 0.574189H3.88899C3.88899 0.574189 3.81534 0.574189 3.77114 0.574189L0.736649 0.559466C0.191619 0.574189 -0.161915 1.13366 0.0737742 1.60478L0.456769 2.38509H0.442038C0.442038 2.38509 0.515691 2.5176 0.648266 2.76789L0.942877 3.3568C0.942877 3.3568 0.972338 3.40097 1.0018 3.43041C1.60575 4.68185 2.51905 6.78721 2.60743 8.42144V19.9494C2.60743 23.2915 3.28504 26.0741 4.62552 28.2972C5.966 30.5204 7.83678 32.1693 10.2231 33.2588C12.6242 34.3483 15.4083 34.893 18.5901 34.893C21.7719 34.893 24.718 34.3336 27.1927 33.1999C29.6822 32.081 31.6266 30.3879 33.0408 28.1353C34.4549 25.8827 35.162 23.1148 35.162 19.8316V1.73729C35.162 1.32505 35.0589 1.01587 34.8379 0.839199H34.8084Z" fill="white"/>
<path d="M63.0912 16.5631C61.3382 15.7092 59.0845 14.9731 56.3298 14.3695C54.5033 13.9572 53.1039 13.5597 52.1169 13.2063C51.13 12.853 50.3934 12.4113 49.8926 11.9107C49.3917 11.3954 49.1413 10.7329 49.1413 9.93789C49.1413 8.81896 49.6569 7.90614 50.6733 7.24362C51.6897 6.56637 53.0744 6.22774 54.8273 6.22774C56.4035 6.22774 57.906 6.49275 59.3349 6.99333C60.5575 7.43501 61.8096 8.03865 63.0617 8.78951L63.3416 8.93674C63.9161 9.24592 64.6526 9.05452 65.0061 8.49505L67.2894 5.06464C67.6429 4.50518 67.363 3.85737 66.8327 3.47458C63.2974 1.14838 59.3201 -0.0147228 54.8862 -0.0147228C52.2789 -0.0147228 49.9368 0.397515 47.8892 1.22199C45.827 2.04647 44.2213 3.23902 43.0576 4.78491C41.8939 6.34553 41.3194 8.2006 41.3194 10.3501C41.3194 12.2788 41.7761 13.8836 42.6893 15.1792C43.6026 16.4601 44.8989 17.5054 46.6077 18.3152C48.3017 19.1249 50.4523 19.8169 53.0744 20.3911C55.0336 20.8475 56.5508 21.2597 57.6114 21.6425C58.672 22.0253 59.4233 22.467 59.8946 22.9381C60.366 23.424 60.587 24.0423 60.587 24.8226C60.587 26.0152 60.0125 26.9574 58.8782 27.6494C57.7292 28.3414 56.1089 28.68 54.0024 28.68C52.3231 28.68 50.6733 28.4003 49.0382 27.8408C47.4031 27.2813 45.9153 26.5158 44.5601 25.5441C44.2066 25.2496 43.8825 25.1171 43.5879 25.1171C43.4406 25.1171 43.2933 25.176 43.1313 25.279C42.9692 25.3968 42.8219 25.5441 42.6746 25.7354L40.4208 28.8714C40.141 29.2836 39.9937 29.5928 39.9937 29.7842C39.9937 30.0787 40.2441 30.4026 40.7449 30.7559C42.4537 32.0368 44.4423 33.0527 46.6961 33.7888C48.9498 34.525 51.3656 34.893 53.9288 34.893C56.757 34.893 59.2612 34.4661 61.4413 33.6121C63.6215 32.7582 65.3155 31.551 66.5381 29.9756C67.7608 28.4003 68.3647 26.5305 68.3647 24.381C68.3647 22.5406 67.9228 20.9947 67.0537 19.7285C66.1699 18.4624 64.8588 17.4023 63.1059 16.5484L63.0912 16.5631Z" fill="white"/>
</g>
<defs>
<clipPath id="clip0_220_247">
<rect width="158" height="64" fill="white"/>
</clipPath>
</defs>
</svg>
