<svg width="225" height="91" viewBox="0 0 225 91" fill="none" xmlns="http://www.w3.org/2000/svg">
<g clip-path="url(#clip0_220_32)">
<path d="M38.8704 64.749H36.7937C36.3531 64.749 36.0385 64.8328 35.8077 64.9793C35.598 65.1258 35.3672 65.4189 35.1155 65.8585L25.6968 84.1548L16.1942 65.8585C15.9844 65.4189 15.7537 65.1258 15.5439 64.9793C15.3341 64.8328 14.9985 64.749 14.558 64.749H12.3134C11.747 64.749 11.4534 64.9165 11.4534 65.2305C11.4534 65.3561 11.5163 65.5654 11.6631 65.8585L24.0606 89.158C24.4382 89.8907 24.7319 90.3931 24.9416 90.6234C25.1514 90.8746 25.3612 91.0002 25.6129 91.0002C25.8017 91.0002 25.9695 90.9584 26.0744 90.8537C26.2002 90.749 26.3471 90.5606 26.5359 90.2675C26.7247 89.9745 26.9344 89.5977 27.1442 89.158L39.4997 65.8585C39.6256 65.5654 39.7095 65.3561 39.7095 65.2305C39.7095 64.9165 39.4158 64.749 38.8494 64.749H38.8704Z" fill="white"/>
<path d="M70.6296 66.0678C70.2101 65.3142 69.9164 64.8117 69.7486 64.5815C69.5808 64.3512 69.35 64.2256 69.1193 64.2256C68.8466 64.2256 68.6158 64.3512 68.427 64.5815C68.2382 64.8117 67.9446 65.3142 67.525 66.0678L55.2115 89.3673C55.0646 89.6604 55.0017 89.8697 55.0017 89.9953C55.0017 90.3093 55.2744 90.4768 55.8198 90.4768H57.9385C58.379 90.4768 58.6937 90.3931 58.9244 90.2465C59.1342 90.1 59.3649 89.8069 59.5747 89.3673L69.0354 71.071L74.888 82.3963H69.1403C68.8466 82.3963 68.5529 82.5637 68.427 82.8359L67.504 84.7409C67.2523 85.2642 67.6299 85.8713 68.2173 85.8713H76.671L78.475 89.3673C78.7268 89.8069 78.9365 90.1 79.1463 90.2465C79.3561 90.3931 79.6707 90.4768 80.1113 90.4768H82.3978C82.9641 90.4768 83.2578 90.3093 83.2578 89.9953C83.2578 89.8697 83.1949 89.6604 83.048 89.3673L70.6086 66.0678H70.6296Z" fill="white"/>
<path d="M123.114 86.9809H111.052C110.864 86.9809 110.738 86.96 110.654 86.8972C110.591 86.8344 110.549 86.7297 110.549 86.5832V65.5654C110.549 65.2514 110.486 65.0421 110.339 64.9165C110.192 64.8118 109.962 64.749 109.647 64.749H107.361C107.025 64.749 106.794 64.8118 106.668 64.9165C106.542 65.0212 106.458 65.2514 106.458 65.5654V89.6814C106.458 89.9954 106.521 90.2047 106.668 90.3303C106.794 90.435 107.046 90.4978 107.361 90.4978H123.114C123.45 90.4978 123.681 90.435 123.807 90.3303C123.932 90.2257 124.016 90.0163 124.016 89.6814V87.7973C124.016 87.4833 123.953 87.274 123.807 87.1484C123.681 87.0437 123.429 86.9809 123.114 86.9809Z" fill="white"/>
<path d="M169.201 64.749H167.124C166.684 64.749 166.369 64.8328 166.138 64.9793C165.929 65.1258 165.698 65.4189 165.446 65.8585L156.027 84.1548L146.525 65.8585C146.315 65.4189 146.084 65.1258 145.874 64.9793C145.665 64.8328 145.329 64.749 144.889 64.749H142.644C142.078 64.749 141.784 64.9165 141.784 65.2305C141.784 65.3561 141.847 65.5654 141.994 65.8585L154.391 89.158C154.769 89.8907 155.062 90.3931 155.272 90.6234C155.482 90.8746 155.692 91.0002 155.943 91.0002C156.132 91.0002 156.3 90.9584 156.405 90.8537C156.531 90.749 156.678 90.5606 156.866 90.2675C157.055 89.9745 157.265 89.5977 157.475 89.158L169.83 65.8585C169.956 65.5654 170.04 65.3561 170.04 65.2305C170.04 64.9165 169.746 64.749 169.18 64.749H169.201Z" fill="white"/>
<path d="M210.358 87.1483C210.232 87.0436 209.98 86.9808 209.666 86.9808H197.834C197.646 86.9808 197.52 86.9599 197.436 86.8971C197.373 86.8343 197.331 86.7296 197.331 86.5831V79.6749C197.331 79.5284 197.373 79.4237 197.436 79.3609C197.499 79.2981 197.625 79.2771 197.834 79.2771H208.218C208.554 79.2771 208.785 79.2143 208.91 79.0887C209.036 78.9631 209.12 78.7538 209.12 78.4607V76.6185C209.12 76.3045 209.057 76.0952 208.91 75.9696C208.785 75.8649 208.533 75.8021 208.218 75.8021H197.834C197.646 75.8021 197.52 75.7812 197.436 75.7184C197.373 75.6556 197.331 75.5509 197.331 75.3625V68.6427C197.331 68.4961 197.373 68.3915 197.436 68.3287C197.499 68.2659 197.625 68.2449 197.834 68.2449H209.624C209.959 68.2449 210.19 68.1821 210.316 68.0775C210.442 67.9728 210.526 67.7425 210.526 67.4285V65.5445C210.526 65.2304 210.463 65.0211 210.316 64.8955C210.169 64.7908 209.938 64.728 209.624 64.728H194.163C193.828 64.728 193.597 64.7908 193.471 64.8955C193.345 65.0002 193.261 65.2304 193.261 65.5445V89.6604C193.261 89.9744 193.324 90.1837 193.471 90.3093C193.597 90.414 193.849 90.4768 194.163 90.4768H209.666C210.001 90.4768 210.232 90.414 210.358 90.3093C210.484 90.2047 210.568 89.9953 210.568 89.6604V87.7763C210.568 87.4623 210.505 87.253 210.358 87.1274V87.1483Z" fill="white"/>
<path d="M105.934 39.5649V48.9643H198.904L204.002 39.5649H105.934Z" fill="#C9333D"/>
<path d="M106.081 0.732422V10.1318H219.923L225 0.732422H106.081Z" fill="#C9333D"/>
<path d="M105.976 20.1592V29.5376H209.414L214.49 20.1592H105.976Z" fill="#C9333D"/>
<path d="M49.5687 1.19316C49.254 0.941948 48.7716 0.816344 48.1213 0.816344H41.1779C40.5066 0.816344 40.0451 0.941948 39.7724 1.19316C39.4997 1.44436 39.3529 1.86304 39.3529 2.47013V27.7793C39.3529 31.9033 38.2621 35.0853 36.1014 37.3461C33.9408 39.607 30.8362 40.7374 26.8296 40.7374C22.8229 40.7374 19.6554 39.607 17.5577 37.3461C15.439 35.0853 14.3902 31.8614 14.3902 27.7165V2.47013C14.3902 1.88398 14.2433 1.44436 13.9287 1.19316C13.614 0.941948 13.1315 0.816344 12.4812 0.816344H5.53784C5.53784 0.816344 5.43295 0.816344 5.37002 0.816344L1.04874 0.79541C0.272593 0.816344 -0.230856 1.61184 0.104777 2.28172L0.650181 3.39122H0.629204C0.629204 3.39122 0.734089 3.57963 0.922882 3.93551L1.34242 4.77287C1.34242 4.77287 1.38438 4.83567 1.42633 4.87754C2.28639 6.65692 3.58697 9.65048 3.71283 11.9742V28.3655C3.71283 33.1175 4.67778 37.074 6.58669 40.235C8.4956 43.3961 11.1597 45.7407 14.558 47.2898C17.9772 48.8389 21.9419 49.6135 26.4729 49.6135C31.004 49.6135 35.1994 48.818 38.7236 47.206C42.2687 45.6151 45.0377 43.2077 47.0514 40.0048C49.0653 36.8019 50.0721 32.8663 50.0721 28.198V2.47013C50.0721 1.88398 49.9253 1.44436 49.6106 1.19316H49.5687Z" fill="white"/>
<path d="M89.8447 23.5507C87.3484 22.3365 84.1389 21.2898 80.2162 20.4315C77.6151 19.8453 75.6222 19.2801 74.2168 18.7777C72.8113 18.2753 71.7624 17.6473 71.0492 16.9355C70.336 16.2028 69.9794 15.2608 69.9794 14.1304C69.9794 12.5394 70.7136 11.2415 72.161 10.2995C73.6084 9.33649 75.5803 8.85501 78.0765 8.85501C80.3211 8.85501 82.4607 9.23182 84.4955 9.94358C86.2366 10.5716 88.0197 11.4299 89.8027 12.4975L90.2013 12.7069C91.0194 13.1465 92.0682 12.8743 92.5717 12.0788L95.8231 7.20123C96.3266 6.40573 95.928 5.48464 95.1728 4.94036C90.1384 1.63279 84.4745 -0.0209961 78.1604 -0.0209961C74.4475 -0.0209961 71.1122 0.565155 68.1963 1.73746C65.2596 2.90976 62.9731 4.60541 61.3159 6.80348C59.6587 9.02248 58.8406 11.6602 58.8406 14.7165C58.8406 17.4589 59.4909 19.7407 60.7914 21.5829C62.092 23.4041 63.938 24.8904 66.3713 26.0418C68.7837 27.1932 71.8464 28.1771 75.5803 28.9935C78.3702 29.6425 80.5309 30.2286 82.0412 30.7729C83.5516 31.3172 84.6214 31.9452 85.2927 32.6151C85.9639 33.3059 86.2786 34.1851 86.2786 35.2946C86.2786 36.9903 85.4605 38.3301 83.8452 39.3139C82.209 40.2978 79.9015 40.7793 76.9018 40.7793C74.5104 40.7793 72.161 40.3816 69.8326 39.5861C67.5041 38.7906 65.3854 37.702 63.4555 36.3204C62.9521 35.9017 62.4906 35.7133 62.071 35.7133C61.8613 35.7133 61.6515 35.797 61.4208 35.9436C61.19 36.111 60.9802 36.3204 60.7705 36.5925L57.561 41.0515C57.1624 41.6376 56.9526 42.0772 56.9526 42.3494C56.9526 42.7681 57.3092 43.2286 58.0225 43.731C60.4558 45.5523 63.2877 46.9967 66.4972 48.0434C69.7067 49.0901 73.1469 49.6135 76.7969 49.6135C80.8245 49.6135 84.3906 49.0064 87.4952 47.7922C90.5998 46.578 93.0122 44.8615 94.7533 42.6215C96.4944 40.3816 97.3545 37.723 97.3545 34.6666C97.3545 32.0499 96.7252 29.8518 95.4875 28.0515C94.2289 26.2511 92.3619 24.7439 89.8657 23.5297L89.8447 23.5507Z" fill="white"/>
</g>
<defs>
<clipPath id="clip0_220_32">
<rect width="225" height="91" fill="white"/>
</clipPath>
</defs>
</svg>
